<svg xmlns="http://www.w3.org/2000/svg" xmlns:xlink="http://www.w3.org/1999/xlink" width="32" height="32"><defs><linearGradient id="a"><stop offset="0" style="stop-color:#ff0040;stop-opacity:1"/><stop offset="1" style="stop-color:#f6b2bc;stop-opacity:1"/></linearGradient><linearGradient xlink:href="#a" id="c" x1="6.189" x2="25.811" y1="-16" y2="-16" gradientTransform="translate(-39.901 44.019) scale(1.63082)" gradientUnits="userSpaceOnUse"/><clipPath id="b" clipPathUnits="userSpaceOnUse"><path d="M-34.808-3.074h42v42h-42Zm39.24 24.522-26.301-20.26-4.695 6.095 9.577 7.377-19.766 25.66 7.148 5.506 19.766-25.66 9.577 7.377z" class="powerclip" style="font-weight:700;font-size:50.5684px;font-family:Ubuntu;-inkscape-font-specification:&quot;Ubuntu Bold&quot;;fill:#ff23ff;stroke-width:4.81991"/></clipPath></defs><path d="M2.192 17.926a16 16 0 0 1-16 16 16 16 0 0 1-16-16 16 16 0 0 1 16-16 16 16 0 0 1 16 16z" clip-path="url(#b)" style="display:inline;fill:url(#c);stroke-width:1.63081" transform="scale(-1 1) rotate(7.393)"/></svg>